# xmcd
#
# Track frame offsets: 
#        150
#        18009
#        29521
#        45360
#        60672
#        73853
#        86808
#        101048
#        119163
#        134115
#        154263
#        171724
#        186405
#
# Disc length: 2696 seconds
#
# Revision: 0
# Processed by: cddbd v1.5.2PL0 Copyright (c) Steve Scherf et al.
# Submitted via: ExactAudioCopy v1.0b4
#
DISCID=c60a860d
DTITLE=John Blues Boyd - The Real Deal
DYEAR=2016
DGENRE=Blues
TTITLE0=I Am the Real Deal
TTITLE1=You Will Discover
TTITLE2=I'm Like a Stranger to You
TTITLE3=That's Big!
TTITLE4=The Smoking Pig
TTITLE5=That Certain Day
TTITLE6=Dona Mae
TTITLE7=I'm So Weak Right Now
TTITLE8=When Your Eyes Met Mine
TTITLE9=Screaming in the Night
TTITLE10=(Have You Ever Been To) Marvin Gardens
TTITLE11=Be Careful With Your Love
TTITLE12=John, the Blues Is Calling You
EXTD=
EXTT0=
EXTT1=
EXTT2=
EXTT3=
EXTT4=
EXTT5=
EXTT6=
EXTT7=
EXTT8=
EXTT9=
EXTT10=
EXTT11=
EXTT12=
PLAYORDER=
